<?xml version="1.0" encoding="utf-8"?>
<!-- Generator: Adobe Illustrator 22.1.0, SVG Export Plug-In . SVG Version: 6.00 Build 0)  -->
<!DOCTYPE svg PUBLIC "-//W3C//DTD SVG 1.1//EN" "http://www.w3.org/Graphics/SVG/1.1/DTD/svg11.dtd">
<svg version="1.1" id="Layer_1" xmlns="http://www.w3.org/2000/svg" xmlns:xlink="http://www.w3.org/1999/xlink" x="0px" y="0px"
	 viewBox="0 0 982 327" style="enable-background:new 0 0 982 327;" xml:space="preserve">
<style type="text/css">
	.st0{fill:#FFFFFF;}
	.st1{display:none;}
	.st2{display:inline;fill:url(#SVGID_1_);}
	.st3{fill:url(#SVGID_2_);}
</style>
<g>
	<path class="st0" d="M110.6,146.1v63.4c0,18.3,7,27.5,21.1,27.5c14.1,0,21.1-9.2,21.1-27.5v-63.4h24.8v64c0,8.8-1.1,16.5-3.2,22.9
		c-2.1,5.7-5.6,10.9-10.7,15.5c-8.4,7.5-19.1,11.2-32,11.2c-12.9,0-23.5-3.7-31.9-11.2c-5.2-4.6-8.8-9.8-10.9-15.5
		c-2.1-5.1-3.1-12.8-3.1-22.9v-64H110.6z"/>
	<path class="st0" d="M193.8,146.1h25v10.2c8.7-8.8,18.5-13.3,29.4-13.3c12.5,0,22.3,4,29.3,12.1c6,6.9,9.1,18.1,9.1,33.7v67.7h-25
		v-61.7c0-10.9-1.5-18.4-4.4-22.6c-2.9-4.2-8.1-6.4-15.7-6.4c-8.2,0-14.1,2.8-17.6,8.4c-3.4,5.5-5.1,15.2-5.1,28.9v53.3h-25V146.1z"
		/>
	<path class="st0" d="M381.9,65h25v191.6h-25V245c-9.8,9.8-20.9,14.7-33.2,14.7c-14.7,0-26.9-5.5-36.7-16.6
		c-9.6-11.3-14.5-25.3-14.5-42.2c0-16.5,4.8-30.3,14.5-41.3c9.6-11.1,21.6-16.7,36.1-16.7c12.6,0,23.9,5.3,33.8,15.9V65z M323,201
		c0,10.6,2.8,19.2,8.3,25.9c5.7,6.7,12.8,10.1,21.4,10.1c9.2,0,16.6-3.3,22.3-9.8c5.7-6.7,8.5-15.3,8.5-25.6
		c0-10.4-2.8-18.9-8.5-25.6c-5.7-6.6-13-9.9-22.1-9.9c-8.5,0-15.7,3.3-21.4,10C325.8,182.8,323,191.1,323,201z"/>
	<path class="st0" d="M418,230.6c0-16,5.6-29.5,16.7-40.7c11.1-11.2,24.7-16.8,40.6-16.8c16,0,29.7,5.6,40.9,16.9
		c11,11.3,16.6,25.1,16.6,41.5c0,16.6-5.6,30.4-16.7,41.6c-11.2,11.1-24.9,16.7-41.2,16.7c-16.1,0-29.6-5.7-40.5-17
		C423.5,261.6,418,247.5,418,230.6z M443.4,231c0,11,2.9,19.8,8.6,26.2c5.9,6.5,13.7,9.8,23.3,9.8c9.7,0,17.5-3.2,23.3-9.6
		c5.8-6.4,8.7-15,8.7-25.8c0-10.7-2.9-19.3-8.7-25.8c-5.9-6.5-13.7-9.8-23.3-9.8c-9.5,0-17.2,3.3-23.1,9.8
		C446.4,212.3,443.4,220.7,443.4,231z"/>
	<path class="st0" d="M580,170.6c0-16,5.6-29.5,16.7-40.7c11.1-11.2,24.7-16.8,40.6-16.8c16,0,29.7,5.6,40.9,16.9
		c11,11.3,16.6,25.1,16.6,41.5c0,16.6-5.6,30.4-16.7,41.6c-11.2,11.1-24.9,16.7-41.2,16.7c-16.1,0-29.6-5.7-40.5-17
		C585.4,201.6,580,187.5,580,170.6z M605.4,171c0,11,2.9,19.8,8.6,26.2c5.9,6.5,13.7,9.8,23.3,9.8c9.7,0,17.5-3.2,23.3-9.6
		c5.8-6.4,8.7-15,8.7-25.8c0-10.7-2.9-19.3-8.7-25.8c-5.9-6.5-13.7-9.8-23.3-9.8c-9.5,0-17.2,3.3-23.1,9.8
		C608.3,152.3,605.4,160.7,605.4,171z"/>
	<path class="st0" d="M809.9,254c0,5.2-0.2,9.8-0.5,13.8c-0.3,4-0.8,7.5-1.4,10.5c-1.8,8.3-5.2,15.5-10.4,21.4
		c-9.7,11.5-23.1,17.2-40.1,17.2c-14.4,0-26.2-4-35.4-11.9c-9.6-8.2-15.1-19.5-16.6-33.9h25c1,5.4,2.5,9.6,4.7,12.6
		c5.2,6.9,12.7,10.3,22.5,10.3c18.2,0,27.3-11.5,27.3-34.4v-15.4c-9.9,10.4-21.2,15.5-34.1,15.5c-14.7,0-26.7-5.4-36-16.3
		c-9.4-11-14.1-24.8-14.1-41.4c0-16.1,4.4-29.8,13.1-41.1c9.4-11.9,21.9-17.9,37.3-17.9c13.5,0,24.8,5.2,33.8,15.5v-12.5h24.8V254z
		 M786,201.6c0-10.7-2.8-19.3-8.4-25.8c-5.7-6.6-12.9-9.9-21.8-9.9c-9.4,0-16.9,3.6-22.3,10.8c-4.9,6.4-7.4,14.7-7.4,25
		c0,10.1,2.5,18.3,7.4,24.7c5.4,7,12.8,10.6,22.3,10.6c9.5,0,17-3.6,22.5-10.7C783.5,219.9,786,211.6,786,201.6z"/>
	<path class="st0" d="M850.9,146.1v110.5h-24.8V146.1H850.9z"/>
	<path class="st0" d="M946.5,146.1h25v110.5h-25V245c-10.2,9.8-21.2,14.7-33,14.7c-14.9,0-27.2-5.5-36.9-16.6
		c-9.6-11.3-14.5-25.3-14.5-42.2c0-16.6,4.8-30.4,14.5-41.4c9.6-11,21.7-16.6,36.2-16.6c12.5,0,23.7,5.3,33.7,15.9V146.1z
		 M887.5,201c0,10.6,2.8,19.2,8.3,25.9c5.7,6.7,12.8,10.1,21.4,10.1c9.2,0,16.6-3.3,22.3-9.8c5.7-6.7,8.5-15.3,8.5-25.6
		c0-10.4-2.8-18.9-8.5-25.6c-5.7-6.6-13-9.9-22.1-9.9c-8.5,0-15.7,3.3-21.4,10C890.4,182.8,887.5,191.1,887.5,201z"/>
	<g>
		<path class="st0" d="M638,271h-30.2c-18.9,0-34.4-5.3-46.4-15.8c-12-10.5-18.1-25.7-18.1-45.4v-167h24.5V214
			c0,8.6,4.1,17.1,12.3,25.4c5.2,5.2,14.3,7.7,27.5,7.7H638V271z"/>
	</g>
	<polygon style="fill:none;" points="628,-18 625,-18 625,-18 628,-18 	"/>
	<g>
		<path class="st0" d="M31.2,259.6V109.8H8.7V87.7h22.5v-7.8c0-22.7,5.2-43.2,18.7-56.4C60.9,12.9,75.6,8.7,89,8.7
			c10.6,0,19.4,2.2,25,4.7l-3.9,22.5c-4.5-2-10.2-3.7-18.8-3.7c-24.7,0-31.2,21.9-31.2,46.7v8.7H99v22.2H60.3v149.7H31.2z"/>
	</g>
</g>
<g>
	<g class="st1">
		<linearGradient id="SVGID_1_" gradientUnits="userSpaceOnUse" x1="532" y1="113.5" x2="571" y2="113.5">
			<stop  offset="0" style="stop-color:#55A7FF"/>
			<stop  offset="1" style="stop-color:#8CC63F"/>
		</linearGradient>
		<path class="st2" d="M551.5,133c-10.8,0-19.5-8.7-19.5-19.5S540.7,94,551.5,94s19.5,8.7,19.5,19.5S562.3,133,551.5,133z
			 M551.5,103c-5.8,0-10.5,4.7-10.5,10.5s4.7,10.5,10.5,10.5s10.5-4.7,10.5-10.5S557.3,103,551.5,103z"/>
	</g>
	<g>
		<linearGradient id="SVGID_2_" gradientUnits="userSpaceOnUse" x1="142.205" y1="334.0185" x2="972.8716" y2="67.3518">
			<stop  offset="0" style="stop-color:#55A7FF"/>
			<stop  offset="1" style="stop-color:#8CC63F"/>
		</linearGradient>
		<path class="st3" d="M960,18c-8.3,0-15,6.7-15,15c0,1.5,0.2,3,0.6,4.3l-95.5,58.5c-3.2-2.4-7.2-3.9-11.6-3.9
			c-10.8,0-19.5,8.7-19.5,19.5c0,4.2,1.3,8.1,3.6,11.3l-59.6,65c-2.1-1.1-4.5-1.7-7-1.7c-5.5,0-10.4,3-13,7.5l-91.1-23
			c-0.3-8.1-6.9-14.5-15-14.5c-8.3,0-15,6.7-15,15c0,0.5,0,1,0.1,1.4l-134.4,50.1c-2.8-3.4-6.9-5.5-11.6-5.5
			c-5.2,0-9.8,2.7-12.5,6.7l-94.6-22.9c-0.6-7.7-7-13.8-14.9-13.8c-8.3,0-15,6.7-15,15c0,0.5,0,1,0.1,1.4l-195.2,82.4
			c-2.7-3.5-7-5.8-11.8-5.8c-8.3,0-15,6.7-15,15c0,8.3,6.7,15,15,15s15-6.7,15-15c0-0.2,0-0.5,0-0.7l195.6-82.6
			c2.8,3.2,6.8,5.3,11.4,5.3c5.5,0,10.3-3,12.9-7.4l94.1,22.8c0.2,8.1,6.8,14.6,15,14.6c8.3,0,15-6.7,15-15c0-0.4,0-0.7-0.1-1.1
			l134.7-50.2c2.8,3.2,6.8,5.3,11.4,5.3c5.3,0,9.9-2.7,12.6-6.8l91.5,23.1c0.6,7.7,7.1,13.8,14.9,13.8c8.3,0,15-6.7,15-15
			c0-2.5-0.6-4.8-1.7-6.8l60-65.4c2.7,1.4,5.8,2.3,9.1,2.3c10.8,0,19.5-8.7,19.5-19.5c0-3.1-0.8-6.1-2.1-8.7l94.8-58.1
			c2.6,2,5.8,3.2,9.3,3.2c8.3,0,15-6.7,15-15C975,24.7,968.3,18,960,18z M838.5,122c-5.8,0-10.5-4.7-10.5-10.5s4.7-10.5,10.5-10.5
			s10.5,4.7,10.5,10.5S844.3,122,838.5,122z"/>
	</g>
</g>
</svg>
