<?xml version="1.0" standalone="no"?>
<!DOCTYPE svg PUBLIC "-//W3C//DTD SVG 20010904//EN"
 "http://www.w3.org/TR/2001/REC-SVG-20010904/DTD/svg10.dtd">
<svg version="1.0" xmlns="http://www.w3.org/2000/svg"
 width="170.000000pt" height="170.000000pt" viewBox="0 0 170.000000 170.000000"
 preserveAspectRatio="xMidYMid meet">
<metadata>
Created by potrace 1.11, written by Peter Selinger 2001-2013
</metadata>
<g transform="translate(0.000000,170.000000) scale(0.100000,-0.100000)"
fill="#000000" stroke="none">
<path d="M1451 1282 c-56 -27 -76 -94 -46 -153 18 -34 25 -19 -110 -227 l-60
-92 -41 4 c-51 5 -113 -21 -140 -58 -17 -23 -23 -26 -49 -17 -17 5 -93 24
-170 42 -145 33 -179 44 -171 58 3 4 -4 26 -15 49 -35 70 -124 93 -190 49 -48
-33 -61 -62 -55 -128 l5 -57 -56 -48 c-31 -27 -62 -55 -70 -62 -10 -10 -21
-11 -46 -3 -66 22 -119 -10 -132 -81 -9 -47 48 -109 95 -104 68 8 100 42 100
108 1 29 10 41 74 95 l74 62 39 -15 c52 -21 111 -6 147 37 l26 31 148 -37
c228 -56 221 -53 217 -73 -1 -9 6 -33 16 -54 53 -104 189 -112 253 -15 23 36
27 49 22 87 -4 25 -14 56 -25 70 l-18 25 96 148 c94 144 97 147 132 147 44 0
86 31 105 76 38 90 -65 180 -155 136z"/>
</g>
</svg>
